# xmcd
#
# Track frame offsets:
#	150
#	11244
#	23178
#	37124
#	49325
#	59121
#	71433
#	82201
#	93138
#	108744
#	121295
#	134037
#	144727
#	157948
#	170602
#	180827
#	194721
#	206860
#	223510
#	250800
#	277791
#	304642
#
# Disc length: 4423 seconds
#
# Revision: 1
# Processed by: cddbd v1.5.1PL2 Copyright (c) Steve Scherf et al.
# Submitted via: audiograbber 1.83.01
#
DISCID=50114516
DTITLE=Susan McCann - My Heroes
DYEAR=1900
DGENRE=Country
TTITLE0=Jolene
TTITLE1=Golden Ring
TTITLE2=Good Hearted Woman
TTITLE3=D I V O R C E
TTITLE4=Don't Come Home A Drinkin'
TTITLE5=Crazy
TTITLE6=The Race Is On
TTITLE7=Stand By Your Man
TTITLE8=The Gambler
TTITLE9=Walking After Midnight
TTITLE10=Crystal Chandeliers
TTITLE11=Country Roads
TTITLE12=True Love Ways
TTITLE13=I Fall To Pieces
TTITLE14=Three Cigarettes In An Ashtray
TTITLE15=Coal Miner's Daughter
TTITLE16=Stop The World
TTITLE17=Medley Yellow Roses
TTITLE18=Country Roads
TTITLE19=Walkin' After Midnight
TTITLE20=Medley Ballads
TTITLE21=Medley Pop
EXTD=
EXTT0=
EXTT1=
EXTT2=
EXTT3=
EXTT4=
EXTT5=
EXTT6=
EXTT7=
EXTT8=
EXTT9=
EXTT10=
EXTT11=
EXTT12=
EXTT13=
EXTT14=
EXTT15=
EXTT16=
EXTT17=
EXTT18=
EXTT19=
EXTT20=
EXTT21=
PLAYORDER=
